<svg width="20" height="18" viewBox="0 0 20 18" fill="none" xmlns="http://www.w3.org/2000/svg">
<path d="M14.6998 12.4148L18.037 15.5844L16.9345 16.6318L13.5981 13.4615C12.3566 14.4069 10.8125 14.9211 9.22148 14.919C5.35058 14.919 2.20898 11.9344 2.20898 8.25709C2.20898 4.57973 5.35058 1.59521 9.22148 1.59521C13.0924 1.59521 16.234 4.57973 16.234 8.25709C16.2362 9.7686 15.695 11.2355 14.6998 12.4148ZM13.1368 11.8656C14.1256 10.8995 14.6779 9.60459 14.6756 8.25709C14.6756 5.3947 12.2345 3.07563 9.22148 3.07563C6.20845 3.07563 3.76732 5.3947 3.76732 8.25709C3.76732 11.1195 6.20845 13.4385 9.22148 13.4385C10.6399 13.4407 12.003 12.916 13.0199 11.9766L13.1368 11.8656Z" fill="black"/>
</svg>
